<svg viewBox="0 0 1100 606" xmlns="http://www.w3.org/2000/svg" role="img" aria-labelledby="t d"><title id="t">Quantum-proofing a blockchain: component map</title><desc id="d">Five core sections (Keys and Accounts, Apps and Inputs, Block Production and Proving, Consensus and Cross-chain, Networking and Confidentiality) each containing components colour-coded by quantum status: red breakable, amber depends on design, green safe. Most components are breakable signatures; the depends-on-design components cluster in Block Production and Proving.</desc><style>svg{font-family:ui-sans-serif,-apple-system,"Segoe UI",Helvetica,Arial,sans-serif;--ink:#1c1b18;--sub:#6f6b63;--sub2:#8a8680;--head:#f3f2ec;--accent:#3b3a36;}text{dominant-baseline:alphabetic;}</style><rect x="0" y="0" width="1100" height="606" fill="#ffffff"/><text x="20" y="46" font-size="22" fill="var(--ink)" font-weight="700" text-anchor="start">Quantum-Proofing a Blockchain — the component map</text><text x="20" y="68" font-size="12.7" fill="var(--sub)" font-weight="400" text-anchor="start">5 core sections · 30 components · colour = quantum status, tag = what breaks it</text><rect x="20" y="78" width="13" height="13" rx="3" fill="#cf5246"/><text x="39" y="89" font-size="11.5" fill="var(--sub)" font-weight="400" text-anchor="start">breakable</text><rect x="118.6" y="78" width="13" height="13" rx="3" fill="#b8862a"/><text x="137.6" y="89" font-size="11.5" fill="var(--sub)" font-weight="400" text-anchor="start">depends on design</text><rect x="268.4" y="78" width="13" height="13" rx="3" fill="#1d9b6c"/><text x="287.4" y="89" font-size="11.5" fill="var(--sub)" font-weight="400" text-anchor="start">safe (hash-based)</text><text x="422.2" y="89" font-size="11" fill="var(--sub2)" font-weight="400" text-anchor="start">tags:  SIG signatures · ENC encryption · PAIR pairings · DEP depends · SAFE</text><rect x="20.0" y="118" width="204.0" height="58" rx="9" fill="var(--head)"/><circle cx="38.0" cy="137" r="9.5" fill="var(--accent)"/><text x="38.0" y="140.5" font-size="11.5" fill="#ffffff" font-weight="700" text-anchor="middle">1</text><text x="54.0" y="141" font-size="11.4" fill="var(--ink)" font-weight="700" text-anchor="start">Keys &amp; Accounts</text><text x="32.0" y="162" font-size="10.6" fill="var(--sub)" font-weight="400" text-anchor="start">Who can move money</text><rect x="20.0" y="184" width="204.0" height="44" rx="8" fill="#fbecea"/><rect x="20.0" y="184" width="4" height="44" rx="2" fill="#cf5246"/><text x="32.0" y="211" font-size="11.4" fill="var(--ink)" font-weight="600" text-anchor="start">Account signing keys</text><text x="215.0" y="221" font-size="8.6" fill="#cf5246" font-weight="700" text-anchor="end" letter-spacing="0.4">SIG</text><rect x="20.0" y="236" width="204.0" height="44" rx="8" fill="#fbecea"/><rect x="20.0" y="236" width="4" height="44" rx="2" fill="#cf5246"/><text x="32.0" y="255" font-size="11.2" fill="var(--ink)" font-weight="600" text-anchor="start">Key custody &amp;</text><text x="32.0" y="269" font-size="11.2" fill="var(--ink)" font-weight="600" text-anchor="start">storage</text><text x="215.0" y="273" font-size="8.6" fill="#cf5246" font-weight="700" text-anchor="end" letter-spacing="0.4">SIG</text><rect x="20.0" y="288" width="204.0" height="44" rx="8" fill="#fbecea"/><rect x="20.0" y="288" width="4" height="44" rx="2" fill="#cf5246"/><text x="32.0" y="307" font-size="11.2" fill="var(--ink)" font-weight="600" text-anchor="start">MPC / threshold</text><text x="32.0" y="321" font-size="11.2" fill="var(--ink)" font-weight="600" text-anchor="start">signing</text><text x="215.0" y="325" font-size="8.6" fill="#cf5246" font-weight="700" text-anchor="end" letter-spacing="0.4">SIG</text><rect x="20.0" y="340" width="204.0" height="44" rx="8" fill="#fbecea"/><rect x="20.0" y="340" width="4" height="44" rx="2" fill="#cf5246"/><text x="32.0" y="367" font-size="11.4" fill="var(--ink)" font-weight="600" text-anchor="start">Account abstraction</text><text x="215.0" y="377" font-size="8.6" fill="#cf5246" font-weight="700" text-anchor="end" letter-spacing="0.4">SIG</text><rect x="20.0" y="392" width="204.0" height="44" rx="8" fill="#fbecea"/><rect x="20.0" y="392" width="4" height="44" rx="2" fill="#cf5246"/><text x="32.0" y="411" font-size="11.2" fill="var(--ink)" font-weight="600" text-anchor="start">Passkeys / session</text><text x="32.0" y="425" font-size="11.2" fill="var(--ink)" font-weight="600" text-anchor="start">keys</text><text x="215.0" y="429" font-size="8.6" fill="#cf5246" font-weight="700" text-anchor="end" letter-spacing="0.4">SIG</text><rect x="20.0" y="444" width="204.0" height="44" rx="8" fill="#fbecea"/><rect x="20.0" y="444" width="4" height="44" rx="2" fill="#cf5246"/><text x="32.0" y="463" font-size="11.2" fill="var(--ink)" font-weight="600" text-anchor="start">Identity &amp;</text><text x="32.0" y="477" font-size="11.2" fill="var(--ink)" font-weight="600" text-anchor="start">naming</text><text x="215.0" y="481" font-size="8.6" fill="#cf5246" font-weight="700" text-anchor="end" letter-spacing="0.4">SIG</text><rect x="20.0" y="496" width="204.0" height="44" rx="8" fill="#fbecea"/><rect x="20.0" y="496" width="4" height="44" rx="2" fill="#cf5246"/><text x="32.0" y="515" font-size="11.2" fill="var(--ink)" font-weight="600" text-anchor="start">Governance &amp;</text><text x="32.0" y="529" font-size="11.2" fill="var(--ink)" font-weight="600" text-anchor="start">voting</text><text x="215.0" y="533" font-size="8.6" fill="#cf5246" font-weight="700" text-anchor="end" letter-spacing="0.4">SIG</text><rect x="234.0" y="118" width="204.0" height="58" rx="9" fill="var(--head)"/><circle cx="252.0" cy="137" r="9.5" fill="var(--accent)"/><text x="252.0" y="140.5" font-size="11.5" fill="#ffffff" font-weight="700" text-anchor="middle">2</text><text x="268.0" y="141" font-size="11.4" fill="var(--ink)" font-weight="700" text-anchor="start">Apps &amp; Inputs</text><text x="246.0" y="162" font-size="10.6" fill="var(--sub)" font-weight="400" text-anchor="start">Programs + data they trust</text><rect x="234.0" y="184" width="204.0" height="44" rx="8" fill="#fbecea"/><rect x="234.0" y="184" width="4" height="44" rx="2" fill="#cf5246"/><text x="246.0" y="203" font-size="11.2" fill="var(--ink)" font-weight="600" text-anchor="start">Contract signature</text><text x="246.0" y="217" font-size="11.2" fill="var(--ink)" font-weight="600" text-anchor="start">checks</text><text x="429.0" y="221" font-size="8.6" fill="#cf5246" font-weight="700" text-anchor="end" letter-spacing="0.4">SIG</text><rect x="234.0" y="236" width="204.0" height="44" rx="8" fill="#fbecea"/><rect x="234.0" y="236" width="4" height="44" rx="2" fill="#cf5246"/><text x="246.0" y="255" font-size="11.2" fill="var(--ink)" font-weight="600" text-anchor="start">Proof &amp;</text><text x="246.0" y="269" font-size="11.2" fill="var(--ink)" font-weight="600" text-anchor="start">pairing verifiers</text><text x="429.0" y="273" font-size="8.6" fill="#cf5246" font-weight="700" text-anchor="end" letter-spacing="0.4">PAIR</text><rect x="234.0" y="288" width="204.0" height="44" rx="8" fill="#fbecea"/><rect x="234.0" y="288" width="4" height="44" rx="2" fill="#cf5246"/><text x="246.0" y="315" font-size="11.4" fill="var(--ink)" font-weight="600" text-anchor="start">Oracles / data feeds</text><text x="429.0" y="325" font-size="8.6" fill="#cf5246" font-weight="700" text-anchor="end" letter-spacing="0.4">SIG</text><rect x="234.0" y="340" width="204.0" height="44" rx="8" fill="#fbecea"/><rect x="234.0" y="340" width="4" height="44" rx="2" fill="#cf5246"/><text x="246.0" y="359" font-size="11.2" fill="var(--ink)" font-weight="600" text-anchor="start">Verifiable</text><text x="246.0" y="373" font-size="11.2" fill="var(--ink)" font-weight="600" text-anchor="start">randomness</text><text x="429.0" y="377" font-size="8.6" fill="#cf5246" font-weight="700" text-anchor="end" letter-spacing="0.4">SIG</text><rect x="234.0" y="392" width="204.0" height="44" rx="8" fill="#f8f1de"/><rect x="234.0" y="392" width="4" height="44" rx="2" fill="#b8862a"/><text x="246.0" y="411" font-size="11.2" fill="var(--ink)" font-weight="600" text-anchor="start">Time-based</text><text x="246.0" y="425" font-size="11.2" fill="var(--ink)" font-weight="600" text-anchor="start">ordering / VDF</text><text x="429.0" y="429" font-size="8.6" fill="#b8862a" font-weight="700" text-anchor="end" letter-spacing="0.4">DEP</text><rect x="448.0" y="118" width="204.0" height="58" rx="9" fill="var(--head)"/><circle cx="466.0" cy="137" r="9.5" fill="var(--accent)"/><text x="466.0" y="140.5" font-size="11.5" fill="#ffffff" font-weight="700" text-anchor="middle">3</text><text x="482.0" y="141" font-size="11.4" fill="var(--ink)" font-weight="700" text-anchor="start">Block Production &amp; Proving</text><text x="460.0" y="162" font-size="10.6" fill="var(--sub)" font-weight="400" text-anchor="start">Order, prove, publish</text><rect x="448.0" y="184" width="204.0" height="44" rx="8" fill="#fbecea"/><rect x="448.0" y="184" width="4" height="44" rx="2" fill="#cf5246"/><text x="460.0" y="203" font-size="11.2" fill="var(--ink)" font-weight="600" text-anchor="start">Sequencing /</text><text x="460.0" y="217" font-size="11.2" fill="var(--ink)" font-weight="600" text-anchor="start">ordering</text><text x="643.0" y="221" font-size="8.6" fill="#cf5246" font-weight="700" text-anchor="end" letter-spacing="0.4">SIG</text><rect x="448.0" y="236" width="204.0" height="44" rx="8" fill="#f8f1de"/><rect x="448.0" y="236" width="4" height="44" rx="2" fill="#b8862a"/><text x="460.0" y="263" font-size="11.4" fill="var(--ink)" font-weight="600" text-anchor="start">Proof system</text><text x="643.0" y="273" font-size="8.6" fill="#b8862a" font-weight="700" text-anchor="end" letter-spacing="0.4">DEP</text><rect x="448.0" y="288" width="204.0" height="44" rx="8" fill="#f8f1de"/><rect x="448.0" y="288" width="4" height="44" rx="2" fill="#b8862a"/><text x="460.0" y="315" font-size="11.4" fill="var(--ink)" font-weight="600" text-anchor="start">Trusted setup</text><text x="643.0" y="325" font-size="8.6" fill="#b8862a" font-weight="700" text-anchor="end" letter-spacing="0.4">DEP</text><rect x="448.0" y="340" width="204.0" height="44" rx="8" fill="#f8f1de"/><rect x="448.0" y="340" width="4" height="44" rx="2" fill="#b8862a"/><text x="460.0" y="359" font-size="11.2" fill="var(--ink)" font-weight="600" text-anchor="start">Data-availability</text><text x="460.0" y="373" font-size="11.2" fill="var(--ink)" font-weight="600" text-anchor="start">commitment</text><text x="643.0" y="377" font-size="8.6" fill="#b8862a" font-weight="700" text-anchor="end" letter-spacing="0.4">DEP</text><rect x="448.0" y="392" width="204.0" height="44" rx="8" fill="#f8f1de"/><rect x="448.0" y="392" width="4" height="44" rx="2" fill="#b8862a"/><text x="460.0" y="419" font-size="11.4" fill="var(--ink)" font-weight="600" text-anchor="start">State commitment</text><text x="643.0" y="429" font-size="8.6" fill="#b8862a" font-weight="700" text-anchor="end" letter-spacing="0.4">DEP</text><rect x="448.0" y="444" width="204.0" height="44" rx="8" fill="#e6f4ee"/><rect x="448.0" y="444" width="4" height="44" rx="2" fill="#1d9b6c"/><text x="460.0" y="471" font-size="11.4" fill="var(--ink)" font-weight="600" text-anchor="start">Execution / VM</text><text x="643.0" y="481" font-size="8.6" fill="#1d9b6c" font-weight="700" text-anchor="end" letter-spacing="0.4">SAFE</text><rect x="662.0" y="118" width="204.0" height="58" rx="9" fill="var(--head)"/><circle cx="680.0" cy="137" r="9.5" fill="var(--accent)"/><text x="680.0" y="140.5" font-size="11.5" fill="#ffffff" font-weight="700" text-anchor="middle">4</text><text x="696.0" y="141" font-size="11.4" fill="var(--ink)" font-weight="700" text-anchor="start">Consensus &amp; Cross-chain</text><text x="674.0" y="162" font-size="10.6" fill="var(--sub)" font-weight="400" text-anchor="start">Agree + connect chains</text><rect x="662.0" y="184" width="204.0" height="44" rx="8" fill="#fbecea"/><rect x="662.0" y="184" width="4" height="44" rx="2" fill="#cf5246"/><text x="674.0" y="203" font-size="11.2" fill="var(--ink)" font-weight="600" text-anchor="start">Consensus &amp;</text><text x="674.0" y="217" font-size="11.2" fill="var(--ink)" font-weight="600" text-anchor="start">finality sigs</text><text x="857.0" y="221" font-size="8.6" fill="#cf5246" font-weight="700" text-anchor="end" letter-spacing="0.4">SIG</text><rect x="662.0" y="236" width="204.0" height="44" rx="8" fill="#fbecea"/><rect x="662.0" y="236" width="4" height="44" rx="2" fill="#cf5246"/><text x="674.0" y="255" font-size="11.2" fill="var(--ink)" font-weight="600" text-anchor="start">Light clients /</text><text x="674.0" y="269" font-size="11.2" fill="var(--ink)" font-weight="600" text-anchor="start">sync cmte</text><text x="857.0" y="273" font-size="8.6" fill="#cf5246" font-weight="700" text-anchor="end" letter-spacing="0.4">SIG</text><rect x="662.0" y="288" width="204.0" height="44" rx="8" fill="#fbecea"/><rect x="662.0" y="288" width="4" height="44" rx="2" fill="#cf5246"/><text x="674.0" y="307" font-size="11.2" fill="var(--ink)" font-weight="600" text-anchor="start">Settlement / L1</text><text x="674.0" y="321" font-size="11.2" fill="var(--ink)" font-weight="600" text-anchor="start">anchoring</text><text x="857.0" y="325" font-size="8.6" fill="#cf5246" font-weight="700" text-anchor="end" letter-spacing="0.4">SIG</text><rect x="662.0" y="340" width="204.0" height="44" rx="8" fill="#fbecea"/><rect x="662.0" y="340" width="4" height="44" rx="2" fill="#cf5246"/><text x="674.0" y="359" font-size="11.2" fill="var(--ink)" font-weight="600" text-anchor="start">Bridges &amp;</text><text x="674.0" y="373" font-size="11.2" fill="var(--ink)" font-weight="600" text-anchor="start">messaging</text><text x="857.0" y="377" font-size="8.6" fill="#cf5246" font-weight="700" text-anchor="end" letter-spacing="0.4">SIG</text><rect x="662.0" y="392" width="204.0" height="44" rx="8" fill="#fbecea"/><rect x="662.0" y="392" width="4" height="44" rx="2" fill="#cf5246"/><text x="674.0" y="419" font-size="11.4" fill="var(--ink)" font-weight="600" text-anchor="start">Restaking / AVS</text><text x="857.0" y="429" font-size="8.6" fill="#cf5246" font-weight="700" text-anchor="end" letter-spacing="0.4">SIG</text><rect x="662.0" y="444" width="204.0" height="44" rx="8" fill="#fbecea"/><rect x="662.0" y="444" width="4" height="44" rx="2" fill="#cf5246"/><text x="674.0" y="463" font-size="11.2" fill="var(--ink)" font-weight="600" text-anchor="start">Payment channels /</text><text x="674.0" y="477" font-size="11.2" fill="var(--ink)" font-weight="600" text-anchor="start">HTLC</text><text x="857.0" y="481" font-size="8.6" fill="#cf5246" font-weight="700" text-anchor="end" letter-spacing="0.4">SIG</text><rect x="662.0" y="496" width="204.0" height="44" rx="8" fill="#fbecea"/><rect x="662.0" y="496" width="4" height="44" rx="2" fill="#cf5246"/><text x="674.0" y="523" font-size="11.4" fill="var(--ink)" font-weight="600" text-anchor="start">MEV / builder-relay</text><text x="857.0" y="533" font-size="8.6" fill="#cf5246" font-weight="700" text-anchor="end" letter-spacing="0.4">SIG</text><rect x="876.0" y="118" width="204.0" height="58" rx="9" fill="var(--head)"/><circle cx="894.0" cy="137" r="9.5" fill="var(--accent)"/><text x="894.0" y="140.5" font-size="11.5" fill="#ffffff" font-weight="700" text-anchor="middle">5</text><text x="910.0" y="141" font-size="11.4" fill="var(--ink)" font-weight="700" text-anchor="start">Networking &amp; Confidentiality</text><text x="888.0" y="162" font-size="10.6" fill="var(--sub)" font-weight="400" text-anchor="start">The wires</text><rect x="876.0" y="184" width="204.0" height="44" rx="8" fill="#fbecea"/><rect x="876.0" y="184" width="4" height="44" rx="2" fill="#cf5246"/><text x="888.0" y="203" font-size="11.2" fill="var(--ink)" font-weight="600" text-anchor="start">Node-to-node</text><text x="888.0" y="217" font-size="11.2" fill="var(--ink)" font-weight="600" text-anchor="start">transport</text><text x="1071.0" y="221" font-size="8.6" fill="#cf5246" font-weight="700" text-anchor="end" letter-spacing="0.4">ENC</text><rect x="876.0" y="236" width="204.0" height="44" rx="8" fill="#fbecea"/><rect x="876.0" y="236" width="4" height="44" rx="2" fill="#cf5246"/><text x="888.0" y="263" font-size="11.4" fill="var(--ink)" font-weight="600" text-anchor="start">Node identity keys</text><text x="1071.0" y="273" font-size="8.6" fill="#cf5246" font-weight="700" text-anchor="end" letter-spacing="0.4">SIG</text><rect x="876.0" y="288" width="204.0" height="44" rx="8" fill="#fbecea"/><rect x="876.0" y="288" width="4" height="44" rx="2" fill="#cf5246"/><text x="888.0" y="315" font-size="11.4" fill="var(--ink)" font-weight="600" text-anchor="start">RPC / API transport</text><text x="1071.0" y="325" font-size="8.6" fill="#cf5246" font-weight="700" text-anchor="end" letter-spacing="0.4">ENC</text><rect x="876.0" y="340" width="204.0" height="44" rx="8" fill="#fbecea"/><rect x="876.0" y="340" width="4" height="44" rx="2" fill="#cf5246"/><text x="888.0" y="359" font-size="11.2" fill="var(--ink)" font-weight="600" text-anchor="start">Key agreement /</text><text x="888.0" y="373" font-size="11.2" fill="var(--ink)" font-weight="600" text-anchor="start">stealth</text><text x="1071.0" y="377" font-size="8.6" fill="#cf5246" font-weight="700" text-anchor="end" letter-spacing="0.4">ENC</text><rect x="876.0" y="392" width="204.0" height="44" rx="8" fill="#fbecea"/><rect x="876.0" y="392" width="4" height="44" rx="2" fill="#cf5246"/><text x="888.0" y="419" font-size="11.4" fill="var(--ink)" font-weight="600" text-anchor="start">App-layer encryption</text><text x="1071.0" y="429" font-size="8.6" fill="#cf5246" font-weight="700" text-anchor="end" letter-spacing="0.4">ENC</text></svg>